<?xml version="1.0" encoding="UTF-8" standalone="no" ?>
<!DOCTYPE svg PUBLIC "-//W3C//DTD SVG 1.1//EN" "http://www.w3.org/Graphics/SVG/1.1/DTD/svg11.dtd">
<svg xmlns="http://www.w3.org/2000/svg" xmlns:xlink="http://www.w3.org/1999/xlink" version="1.1" width="1080" height="1080" viewBox="0 0 1080 1080" xml:space="preserve">
<desc>Created with Fabric.js 5.2.4</desc>
<defs>
</defs>
<g transform="matrix(1 0 0 1 540 540)" id="622a2dd7-4ce2-49bc-b4d5-6ff511dafd7d"  >
<rect style="stroke: none; stroke-width: 1; stroke-dasharray: none; stroke-linecap: butt; stroke-dashoffset: 0; stroke-linejoin: miter; stroke-miterlimit: 4; fill: rgb(255,228,228); fill-rule: nonzero; opacity: 1;" vector-effect="non-scaling-stroke"  x="-540" y="-540" rx="0" ry="0" width="1080" height="1080" />
</g>
<g transform="matrix(1 0 0 1 540 540)" id="ca6cc021-278c-41d0-b5cc-f02748b54151"  >
</g>
<g transform="matrix(1 0 0 1 540 540)"  >
<g style="" vector-effect="non-scaling-stroke"   >
		<g transform="matrix(1 0 0 1 -490 -490)"  >
<rect style="stroke: none; stroke-width: 1; stroke-dasharray: none; stroke-linecap: butt; stroke-dashoffset: 0; stroke-linejoin: miter; stroke-miterlimit: 4; fill: rgb(255,255,255); fill-opacity: 0; fill-rule: nonzero; opacity: 1;" vector-effect="non-scaling-stroke"  x="-50" y="-50" rx="0" ry="0" width="100" height="100" />
</g>
		<g transform="matrix(1 0 0 1 0 0)"  >
<rect style="stroke: none; stroke-width: 1; stroke-dasharray: none; stroke-linecap: butt; stroke-dashoffset: 0; stroke-linejoin: miter; stroke-miterlimit: 4; fill: rgb(255,255,255); fill-rule: nonzero; opacity: 1; visibility: hidden;" vector-effect="non-scaling-stroke"  x="-540" y="-540" rx="0" ry="0" width="1080" height="1080" />
</g>
		<g transform="matrix(8.18 0 0 8.18 1.83 -2.49)"  >
<path style="stroke: rgb(0,0,0); stroke-width: 0; stroke-dasharray: none; stroke-linecap: butt; stroke-dashoffset: 0; stroke-linejoin: miter; stroke-miterlimit: 4; fill: rgb(167,69,222); fill-rule: nonzero; opacity: 1;" vector-effect="non-scaling-stroke"  transform=" translate(-44.7, -61.44)" d="M 38.29 2 C 42.87 -1.1 48.09 -0.41999999999999993 52.4 2.87 C 53.53 3.74 54.5 4.8 55.269999999999996 6.09 C 55.919999999999995 7.1899999999999995 57.06999999999999 9.43 54.92999999999999 9.78 C 54.08999999999999 9.92 52.60999999999999 8.77 51.47999999999999 8.399999999999999 C 50.01999999999999 7.929999999999999 48.51999999999999 7.619999999999998 47.02999999999999 7.469999999999999 C 44.249999999999986 7.179999999999999 41.51999999999999 7.409999999999999 39.16999999999999 8.059999999999999 C 37.889999999999986 8.409999999999998 36.65999999999999 8.839999999999998 35.469999999999985 9.389999999999999 C 34.91999999999999 9.649999999999999 33.789999999999985 10.399999999999999 33.47999999999998 9.429999999999998 C 32.76 7.19 36.64 3.11 38.29 2 L 38.29 2 z M 3.52 79.63 L 10.06 79.63 C 13.34 74.53 20.4 71.86999999999999 26.71 69.49 C 27.970000000000002 69.00999999999999 29.200000000000003 68.55 30.36 68.08 L 30.38 68.06 C 31.45 67.15 32.55 66.06 33.42 65.09 C 34.06 64.37 34.57 63.75 34.84 63.35 C 34.620000000000005 63.160000000000004 34.39 62.97 34.17 62.76 C 32.550000000000004 61.3 31.080000000000002 59.489999999999995 29.75 57.39 C 28.52 55.44 27.41 53.230000000000004 26.41 50.79 C 25.97 50.66 25.55 50.5 25.15 50.31 C 24.58 50.04 24.06 49.730000000000004 23.59 49.370000000000005 C 22.2 48.31 21.29 46.86000000000001 20.75 45.27 C 20.16 43.49 20.05 41.53 20.29 39.720000000000006 C 20.419999999999998 38.78000000000001 20.68 37.970000000000006 21.07 37.290000000000006 C 21.48 36.580000000000005 22.03 36.00000000000001 22.71 35.56000000000001 C 22.91 35.43000000000001 23.14 35.38000000000001 23.36 35.40000000000001 C 22.97 33.40000000000001 23.03 31.490000000000013 23.12 29.240000000000013 C 23.330000000000002 23.37000000000001 24.82 18.680000000000014 29.450000000000003 14.610000000000012 C 36.43000000000001 8.470000000000013 50.24 7.940000000000012 57.93000000000001 13.220000000000011 C 59.07000000000001 14.010000000000012 60.13000000000001 14.940000000000012 61.080000000000005 16.030000000000012 C 64.2 19.610000000000014 66.97 27.470000000000013 66.92 32.31000000000002 C 66.91 33.430000000000014 66.72 34.570000000000014 66.34 35.73000000000002 C 66.32000000000001 35.84000000000002 66.3 35.97000000000002 66.27000000000001 36.11000000000002 C 67.12 36.64000000000002 67.78000000000002 37.29000000000002 68.26 38.03000000000002 L 68.26 38.03000000000002 C 68.98 39.130000000000024 69.29 40.39000000000002 69.22 41.72000000000002 C 69.15 43.00000000000002 68.71 44.35000000000002 67.91 45.66000000000002 C 66.99 47.18000000000002 65.57 48.670000000000016 63.69 49.960000000000015 C 62.05 53.79000000000001 59.75 57.63000000000002 56.97 60.710000000000015 C 56.08 61.70000000000002 55.129999999999995 62.610000000000014 54.14 63.420000000000016 C 54.94 64.28000000000002 56.42 65.56000000000002 57.83 66.77000000000001 C 58.08 66.98 58.33 67.20000000000002 58.58 67.42000000000002 C 59.93 68.03000000000002 61.25 68.57000000000002 62.57 69.12000000000002 C 68.46 71.53000000000002 74.45 73.99000000000002 77.56 79.63000000000002 L 85.88 79.63000000000002 C 87.97999999999999 79.63000000000002 89.67999999999999 81.59000000000002 89.36 83.99000000000002 L 84.81 118.52000000000002 C 84.5 120.90000000000002 82.85000000000001 122.88000000000002 80.45 122.88000000000002 L 8.95 122.88000000000002 C 6.549999999999999 122.88000000000002 4.8999999999999995 120.90000000000002 4.589999999999999 118.52000000000002 L 0.04 83.99 C -0.28 81.6 1.42 79.63 3.52 79.63 L 3.52 79.63 z M 13.85 79.63 L 74.00999999999999 79.63 C 71.14999999999999 75.83999999999999 66.25999999999999 73.83999999999999 61.43999999999999 71.86 C 60.42999999999999 71.45 59.42999999999999 71.04 58.46999999999999 70.62 C 57.669999999999995 71.71000000000001 56.68999999999999 72.66000000000001 55.57999999999999 73.46000000000001 C 52.91999999999999 75.39000000000001 49.47999999999999 76.50000000000001 45.92999999999999 76.67 C 42.39999999999999 76.84 38.739999999999995 76.09 35.61999999999999 74.29 C 34.05999999999999 73.39 32.63999999999999 72.24000000000001 31.43999999999999 70.83000000000001 C 30.26999999999999 71.31000000000002 29.01999999999999 71.77000000000001 27.74999999999999 72.26000000000002 C 22.66 74.2 17.05 76.32 13.85 79.63 L 13.85 79.63 z M 44.3 95.9 C 47.19 95.9 49.53 98.24000000000001 49.53 101.13000000000001 C 49.53 104.02000000000001 47.19 106.36000000000001 44.3 106.36000000000001 C 41.41 106.36000000000001 39.06999999999999 104.02000000000001 39.06999999999999 101.13000000000001 C 39.07 98.24 41.41 95.9 44.3 95.9 L 44.3 95.9 z M 41.69 58.01 C 41.21 57.72 41.059999999999995 57.089999999999996 41.349999999999994 56.61 C 41.63999999999999 56.13 42.269999999999996 55.98 42.74999999999999 56.269999999999996 C 43.519999999999996 56.739999999999995 44.279999999999994 56.989999999999995 45.019999999999996 57.019999999999996 C 45.76 57.05 46.51 56.87 47.269999999999996 56.47 C 47.769999999999996 56.21 48.38999999999999 56.41 48.65 56.91 C 48.91 57.41 48.71 58.029999999999994 48.21 58.29 C 47.13 58.85 46.04 59.11 44.94 59.06 C 43.85 59.01 42.76 58.66 41.69 58.01 L 41.69 58.01 z M 53.94 40.98 C 55.379999999999995 40.98 56.54 42.15 56.54 43.58 C 56.54 45.019999999999996 55.37 46.18 53.94 46.18 C 52.51 46.18 51.339999999999996 45.01 51.339999999999996 43.58 C 51.33 42.14 52.5 40.98 53.94 40.98 L 53.94 40.98 z M 36.04 40.98 C 37.48 40.98 38.64 42.15 38.64 43.58 C 38.64 45.019999999999996 37.47 46.18 36.04 46.18 C 34.6 46.18 33.44 45.01 33.44 43.58 C 33.44 42.14 34.6 40.98 36.04 40.98 L 36.04 40.98 z M 23.88 37.34 L 23.86 37.35 C 23.47 37.6 23.16 37.93 22.919999999999998 38.35 C 22.659999999999997 38.800000000000004 22.49 39.35 22.4 40.01 C 22.2 41.519999999999996 22.29 43.15 22.77 44.61 C 23.169999999999998 45.82 23.86 46.91 24.88 47.7 C 25.24 47.980000000000004 25.63 48.21 26.049999999999997 48.410000000000004 C 26.479999999999997 48.61000000000001 26.939999999999998 48.77 27.439999999999998 48.89 C 27.79 48.97 28.049999999999997 49.22 28.179999999999996 49.53 L 28.179999999999996 49.53 C 29.189999999999998 52.050000000000004 30.299999999999997 54.31 31.539999999999996 56.28 C 32.76 58.22 34.10999999999999 59.870000000000005 35.589999999999996 61.21 C 37.169999999999995 62.64 38.73 63.64 40.26 64.28 C 43.07 65.46000000000001 45.769999999999996 65.39 48.28 64.46000000000001 C 50.86 63.510000000000005 53.260000000000005 61.650000000000006 55.38 59.30000000000001 C 58.06 56.33000000000001 60.27 52.59000000000001 61.84 48.860000000000014 C 61.940000000000005 48.63000000000002 62.11000000000001 48.45000000000002 62.31 48.34000000000001 C 64.02 47.20000000000001 65.28 45.90000000000001 66.08 44.58000000000001 C 66.69 43.58000000000001 67.02 42.570000000000014 67.08 41.63000000000001 C 67.13 40.74000000000001 66.92999999999999 39.91000000000001 66.47 39.21000000000001 L 66.47 39.21000000000001 L 66.47 39.21000000000001 C 66.22 38.84000000000001 65.91 38.49000000000001 65.51 38.190000000000005 C 64.71000000000001 40.00000000000001 63.370000000000005 42.39000000000001 61.64000000000001 44.760000000000005 L 61.64000000000001 33.9 C 56.66000000000001 31.59 53.41000000000001 26.529999999999998 51.75000000000001 18.909999999999997 C 49.760000000000005 33.41 31.960000000000008 32.779999999999994 27.480000000000008 35.42999999999999 L 27.480000000000008 43.88999999999999 C 26.630000000000006 42.699999999999996 25.870000000000008 41.47999999999999 25.180000000000007 40.24999999999999 C 24.62 39.22 24.19 38.26 23.88 37.34 L 23.88 37.34 z M 36.46 64.58 C 36.09 65.12 35.56 65.77 34.94 66.46 C 34.419999999999995 67.03999999999999 33.82 67.66 33.19 68.25999999999999 C 34.269999999999996 69.71999999999998 35.61 70.86999999999999 37.099999999999994 71.72999999999999 C 39.709999999999994 73.22999999999999 42.8 73.85999999999999 45.78999999999999 73.71999999999998 C 48.76999999999999 73.56999999999998 51.629999999999995 72.65999999999998 53.82999999999999 71.05999999999999 C 54.88999999999999 70.28999999999999 55.78999999999999 69.35999999999999 56.459999999999994 68.29999999999998 C 54.959999999999994 67.00999999999998 53.38999999999999 65.63999999999999 52.48 64.64999999999998 C 51.37 65.38999999999997 50.209999999999994 65.99999999999997 49 66.43999999999998 C 46 67.54999999999998 42.769999999999996 67.62999999999998 39.42 66.21999999999998 C 38.45 65.81 37.46 65.27 36.46 64.58 L 36.46 64.58 z" stroke-linecap="round" />
</g>
</g>
</g>
</svg>